<svg xmlns="http://www.w3.org/2000/svg" width="350" height="250" viewBox="140 120 625 490" style="background-color: transparent;">
  <!-- White Halo for padding against QR dots organically -->
  <path fill="#FFFFFF" stroke="#FFFFFF" stroke-width="36" stroke-linejoin="round" d="m 264,595 c 0,0 -51.73135,-2.04069 -85,-35 -33.26865,-32.95931 -35,-85 -35,-85 V 248 c 0,0 2.20265,-51.97309 35,-85 32.79735,-33.02691 85,-35 85,-35 h 228 c 0,0 51.96922,1.62463 85,35 33.03078,33.37537 35,85 35,85 v 206 l 143,141 z" />
  
  <!-- Outer Bubble Shape: White fill with Dark Blue border -->
  <path fill="#FFFFFF" stroke="#003D6B" stroke-width="12" stroke-linejoin="round" d="m 264,595 c 0,0 -51.73135,-2.04069 -85,-35 -33.26865,-32.95931 -35,-85 -35,-85 V 248 c 0,0 2.20265,-51.97309 35,-85 32.79735,-33.02691 85,-35 85,-35 h 228 c 0,0 51.96922,1.62463 85,35 33.03078,33.37537 35,85 35,85 v 206 l 143,141 z" />
  
  <!-- Central Dark Blue Blocks -->
  <path fill="#003D6B" d="m 244.50833,538.81902 c -21.92733,-7.08926 -38.21085,-23.27746 -45.65679,-45.3895 -2.806,-8.33292 -3.14513,-10.9568 -2.67653,-53.42951 0.19597,-17.76259 0.42098,-52.54975 0,-52 h 85 v 23.66667 c 0,25.51158 1.0036,-28.72629 8.48554,36.7857 6.59456,7.10354 12.40407,9.54762 35.44823,9.54762 h 26.06623 v 85 h -50.33335 c -43.19732,0 -49.86843,-2.0908 -56.33333,-4.18098 z M 196.175,306.77802 c -2e-5,-45.48581 0.17707,-68.0126 2.46436,-76.11135 6.12655,-21.69275 22.22045,-38.87126 43.92652,-46.88683 C 250.10669,180.99518 253.01716,180 300.175,180 h 51.00001 v 85 H 326.3765 c -25.88237,0 -28.92674,1.03697 -36.67573,8.81003 -7.47192,7.49512 -7.43767,11.21147 -8.52576,37.25499 V 335 h -85 z M 474.175,335 c 0,0 0.064,-12.18477 0,-27.11858 -0.1045,-24.57235 -4.7739,-29.07353 -9.56634,-34.09507 -4.79248,-5.02154 -6.66297,-8.68655 -33.43367,-8.78635 -9.40239,-0.0351 -26.99998,0 -26.99998,0 v -84.99999 h 42.41124 c 24.46175,0 47.59685,0.63215 53.00005,1.44818 13.3743,2.01993 27.1424,8.8725 36.7379,18.28489 9.1942,9.0189 18.1186,25.98239 20.1319,38.26693 0.7211,4.4 2.7332,20.2969 2.7189,35.33333 -0.026,27.53257 0,61.66666 0,61.66666 z" />
  
  <!-- Central Teal Triangle (Bottom-Right corner) -->
  <path fill="#00A99D" d="m 404.17501,543 v -85 h 23.65489 c 27.74822,0 31.45335,-1.49031 37.57654,-9.51822 6.00986,-7.87937 8.70576,-12.87624 8.76856,-36.25952 0.032,-11.97777 0,-24.22226 0,-24.22226 l 147.6667,155 z" />
</svg>
